<mxfile host="app.diagrams.net" modified="2024-04-21T01:42:01.125Z" agent="Mozilla/5.0 (Windows NT 10.0; Win64; x64) AppleWebKit/537.36 (KHTML, like Gecko) Chrome/123.0.0.0 Safari/537.36" etag="k1CTkWmZ0QLTPuRajKLW" version="24.2.7" type="device">
  <diagram id="C5RBs43oDa-KdzZeNtuy" name="Page-1">
    <mxGraphModel dx="2765" dy="1122" grid="1" gridSize="10" guides="1" tooltips="1" connect="1" arrows="1" fold="1" page="1" pageScale="1" pageWidth="827" pageHeight="1169" math="0" shadow="0">
      <root>
        <mxCell id="WIyWlLk6GJQsqaUBKTNV-0" />
        <mxCell id="WIyWlLk6GJQsqaUBKTNV-1" parent="WIyWlLk6GJQsqaUBKTNV-0" />
        <mxCell id="hQngMnyWvIp1G6kRzxm6-0" value="«interface»&lt;br&gt;&lt;b&gt;Iterable&amp;lt;Position&lt;/b&gt;&lt;b style=&quot;background-color: initial;&quot;&gt;&amp;gt;&lt;/b&gt;" style="html=1;whiteSpace=wrap;rounded=0;glass=0;shadow=0;" parent="WIyWlLk6GJQsqaUBKTNV-1" vertex="1">
          <mxGeometry x="230" y="40" width="360" height="60" as="geometry" />
        </mxCell>
        <mxCell id="hQngMnyWvIp1G6kRzxm6-1" value="«interface»&lt;br&gt;&lt;b&gt;Position&lt;/b&gt;&lt;div&gt;&lt;i style=&quot;&quot;&gt;&lt;br&gt;&lt;/i&gt;&lt;div style=&quot;text-align: left;&quot;&gt;&lt;i&gt;getX():int&lt;/i&gt;&lt;/div&gt;&lt;div style=&quot;text-align: left;&quot;&gt;&lt;i&gt;getY():int&lt;/i&gt;&lt;/div&gt;&lt;/div&gt;" style="html=1;whiteSpace=wrap;" parent="WIyWlLk6GJQsqaUBKTNV-1" vertex="1">
          <mxGeometry x="660" y="40" width="130" height="90" as="geometry" />
        </mxCell>
        <mxCell id="hQngMnyWvIp1G6kRzxm6-3" value="«interface»&lt;br&gt;&lt;b&gt;ConstantArea&amp;lt;OBJ extends ObjectInArea&lt;/b&gt;&lt;b style=&quot;background-color: initial;&quot;&gt;&amp;gt;&lt;/b&gt;&lt;div&gt;&lt;b style=&quot;background-color: initial;&quot;&gt;&lt;br&gt;&lt;/b&gt;&lt;/div&gt;&lt;div style=&quot;text-align: left;&quot;&gt;&lt;span style=&quot;background-color: initial;&quot;&gt;&lt;i&gt;get(pos: Position): OBJ&lt;/i&gt;&lt;/span&gt;&lt;/div&gt;&lt;div style=&quot;text-align: left;&quot;&gt;&lt;span style=&quot;background-color: initial;&quot;&gt;&lt;i&gt;positionIsEmpty(pos: Position): boolean&lt;/i&gt;&lt;/span&gt;&lt;/div&gt;&lt;div style=&quot;text-align: left;&quot;&gt;&lt;span style=&quot;background-color: initial;&quot;&gt;&lt;i&gt;positionIsBusy(pos: Position): boolean&lt;/i&gt;&lt;/span&gt;&lt;br&gt;&lt;/div&gt;" style="html=1;whiteSpace=wrap;" parent="WIyWlLk6GJQsqaUBKTNV-1" vertex="1">
          <mxGeometry x="230" y="138" width="360" height="110" as="geometry" />
        </mxCell>
        <mxCell id="A1epkwrw8lpJpmuVomXl-7" value="" style="endArrow=block;endSize=16;endFill=0;html=1;rounded=0;entryX=0.5;entryY=1;entryDx=0;entryDy=0;exitX=0.5;exitY=0;exitDx=0;exitDy=0;" parent="WIyWlLk6GJQsqaUBKTNV-1" source="hQngMnyWvIp1G6kRzxm6-3" target="hQngMnyWvIp1G6kRzxm6-0" edge="1">
          <mxGeometry x="1" y="-726" width="160" relative="1" as="geometry">
            <mxPoint x="40" y="320" as="sourcePoint" />
            <mxPoint x="200" y="320" as="targetPoint" />
            <mxPoint x="-16" y="-150" as="offset" />
          </mxGeometry>
        </mxCell>
        <mxCell id="A1epkwrw8lpJpmuVomXl-10" value="" style="ellipse;whiteSpace=wrap;html=1;align=center;aspect=fixed;fillColor=none;strokeColor=none;resizable=0;perimeter=centerPerimeter;rotatable=0;allowArrows=0;points=[];outlineConnect=1;" parent="WIyWlLk6GJQsqaUBKTNV-1" vertex="1">
          <mxGeometry x="500" y="460" width="10" height="10" as="geometry" />
        </mxCell>
        <mxCell id="wfJNQ36MljdzJrXeHkmz-4" value="«interface»&lt;br&gt;&lt;b&gt;Area&amp;lt;OBJ extends ObjectInArea&amp;gt;&lt;/b&gt;&lt;div&gt;&lt;i&gt;&lt;br&gt;&lt;/i&gt;&lt;/div&gt;&lt;div style=&quot;text-align: left;&quot;&gt;&lt;i&gt;set(pos: Position, obj: OBJ)&lt;/i&gt;&lt;/div&gt;&lt;div style=&quot;text-align: left;&quot;&gt;&lt;i&gt;place(pos: Position, obj: OBJ)&lt;/i&gt;&lt;/div&gt;&lt;div style=&quot;text-align: left;&quot;&gt;&lt;i&gt;tryPlace(pos: Position, obj: OBJ)&lt;/i&gt;&lt;/div&gt;&lt;div style=&quot;text-align: left;&quot;&gt;&lt;i&gt;replace(pos: Position, obj: OBJ)&lt;/i&gt;&lt;/div&gt;&lt;div style=&quot;text-align: left;&quot;&gt;&lt;i&gt;tryReplace(pos: Position, obj: OBJ)&lt;/i&gt;&lt;/div&gt;&lt;div style=&quot;text-align: left;&quot;&gt;&lt;i&gt;remove(pos: Position)&lt;/i&gt;&lt;/div&gt;&lt;div style=&quot;text-align: left;&quot;&gt;&lt;i&gt;tryRemeve(pos: Position)&lt;/i&gt;&lt;/div&gt;&lt;div style=&quot;text-align: left;&quot;&gt;&lt;i&gt;relocate(oldPos: Position, newPos: Position)&lt;/i&gt;&lt;/div&gt;&lt;div style=&quot;text-align: left;&quot;&gt;&lt;i&gt;tryRelocate(oldPos: Position, newPos: Position)&lt;/i&gt;&lt;/div&gt;&lt;div style=&quot;text-align: left;&quot;&gt;&lt;i&gt;relocateToEweryWhere(oldPos: Position, newPos: Position)&lt;/i&gt;&lt;/div&gt;" style="html=1;whiteSpace=wrap;" parent="WIyWlLk6GJQsqaUBKTNV-1" vertex="1">
          <mxGeometry x="230" y="290" width="360" height="220" as="geometry" />
        </mxCell>
        <mxCell id="wfJNQ36MljdzJrXeHkmz-8" value="" style="endArrow=block;endSize=16;endFill=0;html=1;rounded=0;entryX=0.5;entryY=1;entryDx=0;entryDy=0;exitX=0.5;exitY=0;exitDx=0;exitDy=0;" parent="WIyWlLk6GJQsqaUBKTNV-1" source="wfJNQ36MljdzJrXeHkmz-4" target="hQngMnyWvIp1G6kRzxm6-3" edge="1">
          <mxGeometry x="-0.125" y="70" width="160" relative="1" as="geometry">
            <mxPoint x="390" y="240" as="sourcePoint" />
            <mxPoint x="650" y="260" as="targetPoint" />
            <Array as="points" />
            <mxPoint as="offset" />
          </mxGeometry>
        </mxCell>
        <mxCell id="wfJNQ36MljdzJrXeHkmz-26" value="&lt;div&gt;&lt;i&gt;abstract class&lt;/i&gt;&lt;/div&gt;&lt;b&gt;AbstractArea&amp;lt;OBJ extends ObjectInArea&amp;gt;&lt;/b&gt;" style="swimlane;fontStyle=0;childLayout=stackLayout;horizontal=1;startSize=52;fillColor=default;horizontalStack=0;resizeParent=1;resizeParentMax=0;resizeLast=0;collapsible=1;marginBottom=0;whiteSpace=wrap;html=1;" parent="WIyWlLk6GJQsqaUBKTNV-1" vertex="1">
          <mxGeometry x="230" y="550" width="360" height="390" as="geometry">
            <mxRectangle x="40" y="540" width="280" height="30" as="alternateBounds" />
          </mxGeometry>
        </mxCell>
        <mxCell id="-R_YljXbn4gXeZBOSj7D-22" value="+ get(pos: Position): OBJ" style="text;strokeColor=none;fillColor=default;align=left;verticalAlign=top;spacingLeft=4;spacingRight=4;overflow=hidden;rotatable=0;points=[[0,0.5],[1,0.5]];portConstraint=eastwest;whiteSpace=wrap;html=1;" parent="wfJNQ36MljdzJrXeHkmz-26" vertex="1">
          <mxGeometry y="52" width="360" height="26" as="geometry" />
        </mxCell>
        <mxCell id="-R_YljXbn4gXeZBOSj7D-19" value="+ set(pos: Position)" style="text;strokeColor=none;fillColor=default;align=left;verticalAlign=top;spacingLeft=4;spacingRight=4;overflow=hidden;rotatable=0;points=[[0,0.5],[1,0.5]];portConstraint=eastwest;whiteSpace=wrap;html=1;" parent="wfJNQ36MljdzJrXeHkmz-26" vertex="1">
          <mxGeometry y="78" width="360" height="26" as="geometry" />
        </mxCell>
        <mxCell id="-R_YljXbn4gXeZBOSj7D-18" value="+ place(pos: Position, obj: OBJ)" style="text;strokeColor=none;fillColor=default;align=left;verticalAlign=top;spacingLeft=4;spacingRight=4;overflow=hidden;rotatable=0;points=[[0,0.5],[1,0.5]];portConstraint=eastwest;whiteSpace=wrap;html=1;" parent="wfJNQ36MljdzJrXeHkmz-26" vertex="1">
          <mxGeometry y="104" width="360" height="26" as="geometry" />
        </mxCell>
        <mxCell id="-R_YljXbn4gXeZBOSj7D-17" value="+ tryPlace(pos: Position, obj: OBJ)" style="text;strokeColor=none;fillColor=default;align=left;verticalAlign=top;spacingLeft=4;spacingRight=4;overflow=hidden;rotatable=0;points=[[0,0.5],[1,0.5]];portConstraint=eastwest;whiteSpace=wrap;html=1;" parent="wfJNQ36MljdzJrXeHkmz-26" vertex="1">
          <mxGeometry y="130" width="360" height="26" as="geometry" />
        </mxCell>
        <mxCell id="-R_YljXbn4gXeZBOSj7D-13" value="+ tryRemove(pos: Position)" style="text;strokeColor=none;fillColor=default;align=left;verticalAlign=top;spacingLeft=4;spacingRight=4;overflow=hidden;rotatable=0;points=[[0,0.5],[1,0.5]];portConstraint=eastwest;whiteSpace=wrap;html=1;" parent="wfJNQ36MljdzJrXeHkmz-26" vertex="1">
          <mxGeometry y="156" width="360" height="26" as="geometry" />
        </mxCell>
        <mxCell id="-R_YljXbn4gXeZBOSj7D-14" value="+ remove(pos: Position)" style="text;strokeColor=none;fillColor=default;align=left;verticalAlign=top;spacingLeft=4;spacingRight=4;overflow=hidden;rotatable=0;points=[[0,0.5],[1,0.5]];portConstraint=eastwest;whiteSpace=wrap;html=1;" parent="wfJNQ36MljdzJrXeHkmz-26" vertex="1">
          <mxGeometry y="182" width="360" height="26" as="geometry" />
        </mxCell>
        <mxCell id="-R_YljXbn4gXeZBOSj7D-15" value="+ tryReplace(pos: Position, obj: OBJ)" style="text;strokeColor=none;fillColor=default;align=left;verticalAlign=top;spacingLeft=4;spacingRight=4;overflow=hidden;rotatable=0;points=[[0,0.5],[1,0.5]];portConstraint=eastwest;whiteSpace=wrap;html=1;" parent="wfJNQ36MljdzJrXeHkmz-26" vertex="1">
          <mxGeometry y="208" width="360" height="26" as="geometry" />
        </mxCell>
        <mxCell id="-R_YljXbn4gXeZBOSj7D-16" value="+ replace(pos: Position, obj: OBJ)" style="text;strokeColor=none;fillColor=default;align=left;verticalAlign=top;spacingLeft=4;spacingRight=4;overflow=hidden;rotatable=0;points=[[0,0.5],[1,0.5]];portConstraint=eastwest;whiteSpace=wrap;html=1;" parent="wfJNQ36MljdzJrXeHkmz-26" vertex="1">
          <mxGeometry y="234" width="360" height="26" as="geometry" />
        </mxCell>
        <mxCell id="-R_YljXbn4gXeZBOSj7D-2" value="+ relocate(oldPos: Position, newPos: Position)" style="text;strokeColor=none;fillColor=default;align=left;verticalAlign=top;spacingLeft=4;spacingRight=4;overflow=hidden;rotatable=0;points=[[0,0.5],[1,0.5]];portConstraint=eastwest;whiteSpace=wrap;html=1;" parent="wfJNQ36MljdzJrXeHkmz-26" vertex="1">
          <mxGeometry y="260" width="360" height="26" as="geometry" />
        </mxCell>
        <mxCell id="-R_YljXbn4gXeZBOSj7D-11" value="+ tryRelocate(oldPos: Position, newPos: Position)" style="text;strokeColor=none;fillColor=default;align=left;verticalAlign=top;spacingLeft=4;spacingRight=4;overflow=hidden;rotatable=0;points=[[0,0.5],[1,0.5]];portConstraint=eastwest;whiteSpace=wrap;html=1;" parent="wfJNQ36MljdzJrXeHkmz-26" vertex="1">
          <mxGeometry y="286" width="360" height="26" as="geometry" />
        </mxCell>
        <mxCell id="-R_YljXbn4gXeZBOSj7D-12" value="+ relocateToEweryWhere(oldPos: Position, newPos: Position)" style="text;strokeColor=none;fillColor=default;align=left;verticalAlign=top;spacingLeft=4;spacingRight=4;overflow=hidden;rotatable=0;points=[[0,0.5],[1,0.5]];portConstraint=eastwest;whiteSpace=wrap;html=1;" parent="wfJNQ36MljdzJrXeHkmz-26" vertex="1">
          <mxGeometry y="312" width="360" height="26" as="geometry" />
        </mxCell>
        <mxCell id="-R_YljXbn4gXeZBOSj7D-20" value="+ positionIsEmpty(pos: Position): boolean" style="text;strokeColor=none;fillColor=default;align=left;verticalAlign=top;spacingLeft=4;spacingRight=4;overflow=hidden;rotatable=0;points=[[0,0.5],[1,0.5]];portConstraint=eastwest;whiteSpace=wrap;html=1;" parent="wfJNQ36MljdzJrXeHkmz-26" vertex="1">
          <mxGeometry y="338" width="360" height="26" as="geometry" />
        </mxCell>
        <mxCell id="-R_YljXbn4gXeZBOSj7D-21" value="+ positionIsEmpty(pos: Position): boolean" style="text;strokeColor=none;fillColor=default;align=left;verticalAlign=top;spacingLeft=4;spacingRight=4;overflow=hidden;rotatable=0;points=[[0,0.5],[1,0.5]];portConstraint=eastwest;whiteSpace=wrap;html=1;" parent="wfJNQ36MljdzJrXeHkmz-26" vertex="1">
          <mxGeometry y="364" width="360" height="26" as="geometry" />
        </mxCell>
        <mxCell id="wfJNQ36MljdzJrXeHkmz-30" value="" style="endArrow=block;dashed=1;endFill=0;endSize=12;html=1;rounded=0;exitX=0.5;exitY=0;exitDx=0;exitDy=0;" parent="WIyWlLk6GJQsqaUBKTNV-1" source="wfJNQ36MljdzJrXeHkmz-26" target="wfJNQ36MljdzJrXeHkmz-4" edge="1">
          <mxGeometry width="160" relative="1" as="geometry">
            <mxPoint x="480" y="430" as="sourcePoint" />
            <mxPoint x="640" y="430" as="targetPoint" />
          </mxGeometry>
        </mxCell>
        <mxCell id="wfJNQ36MljdzJrXeHkmz-38" value="GamePosition" style="swimlane;fontStyle=0;childLayout=stackLayout;horizontal=1;startSize=26;fillColor=default;horizontalStack=0;resizeParent=1;resizeParentMax=0;resizeLast=0;collapsible=1;marginBottom=0;whiteSpace=wrap;html=1;" parent="WIyWlLk6GJQsqaUBKTNV-1" vertex="1">
          <mxGeometry x="660" y="170" width="130" height="78" as="geometry">
            <mxRectangle x="660" y="170" width="120" height="30" as="alternateBounds" />
          </mxGeometry>
        </mxCell>
        <mxCell id="wfJNQ36MljdzJrXeHkmz-39" value="- x: int" style="text;strokeColor=none;fillColor=default;align=left;verticalAlign=top;spacingLeft=4;spacingRight=4;overflow=hidden;rotatable=0;points=[[0,0.5],[1,0.5]];portConstraint=eastwest;whiteSpace=wrap;html=1;" parent="wfJNQ36MljdzJrXeHkmz-38" vertex="1">
          <mxGeometry y="26" width="130" height="26" as="geometry" />
        </mxCell>
        <mxCell id="wfJNQ36MljdzJrXeHkmz-40" value="- y: int" style="text;strokeColor=none;fillColor=default;align=left;verticalAlign=top;spacingLeft=4;spacingRight=4;overflow=hidden;rotatable=0;points=[[0,0.5],[1,0.5]];portConstraint=eastwest;whiteSpace=wrap;html=1;" parent="wfJNQ36MljdzJrXeHkmz-38" vertex="1">
          <mxGeometry y="52" width="130" height="26" as="geometry" />
        </mxCell>
        <mxCell id="wfJNQ36MljdzJrXeHkmz-42" value="" style="endArrow=block;dashed=1;endFill=0;endSize=12;html=1;rounded=0;entryX=0.5;entryY=1;entryDx=0;entryDy=0;exitX=0.5;exitY=0;exitDx=0;exitDy=0;" parent="WIyWlLk6GJQsqaUBKTNV-1" source="wfJNQ36MljdzJrXeHkmz-38" target="hQngMnyWvIp1G6kRzxm6-1" edge="1">
          <mxGeometry width="160" relative="1" as="geometry">
            <mxPoint x="480" y="330" as="sourcePoint" />
            <mxPoint x="640" y="320" as="targetPoint" />
          </mxGeometry>
        </mxCell>
        <mxCell id="wfJNQ36MljdzJrXeHkmz-43" value="«interface»&lt;br&gt;&lt;b&gt;ConstantAreaContansAll&lt;/b&gt;&lt;div&gt;Extends ConstantArea&amp;lt;ObjectInArea&amp;gt;&lt;/div&gt;" style="html=1;whiteSpace=wrap;" parent="WIyWlLk6GJQsqaUBKTNV-1" vertex="1">
          <mxGeometry x="20" y="290" width="170" height="70" as="geometry" />
        </mxCell>
        <mxCell id="wfJNQ36MljdzJrXeHkmz-44" value="" style="endArrow=block;endSize=16;endFill=0;html=1;rounded=0;exitX=0.5;exitY=0;exitDx=0;exitDy=0;entryX=0;entryY=0.75;entryDx=0;entryDy=0;" parent="WIyWlLk6GJQsqaUBKTNV-1" source="wfJNQ36MljdzJrXeHkmz-43" target="hQngMnyWvIp1G6kRzxm6-3" edge="1">
          <mxGeometry x="-1" y="-50" width="160" relative="1" as="geometry">
            <mxPoint x="160" y="350" as="sourcePoint" />
            <mxPoint x="320" y="350" as="targetPoint" />
            <Array as="points">
              <mxPoint x="105" y="220" />
            </Array>
            <mxPoint as="offset" />
          </mxGeometry>
        </mxCell>
        <mxCell id="wfJNQ36MljdzJrXeHkmz-47" value="«interface»&lt;br&gt;&lt;b&gt;AreaContainsAll&lt;/b&gt;&lt;div&gt;doesn&#39;t extend ConstandAreaWithBorders&lt;/div&gt;" style="html=1;whiteSpace=wrap;" parent="WIyWlLk6GJQsqaUBKTNV-1" vertex="1">
          <mxGeometry x="20" y="440" width="170" height="70" as="geometry" />
        </mxCell>
        <mxCell id="wfJNQ36MljdzJrXeHkmz-52" value="" style="endArrow=block;endSize=16;endFill=0;html=1;rounded=0;exitX=0.5;exitY=0;exitDx=0;exitDy=0;entryX=0.5;entryY=1;entryDx=0;entryDy=0;" parent="WIyWlLk6GJQsqaUBKTNV-1" source="wfJNQ36MljdzJrXeHkmz-47" target="wfJNQ36MljdzJrXeHkmz-43" edge="1">
          <mxGeometry width="160" relative="1" as="geometry">
            <mxPoint x="160" y="270" as="sourcePoint" />
            <mxPoint x="320" y="270" as="targetPoint" />
          </mxGeometry>
        </mxCell>
        <mxCell id="fP4wYTiddwTJmMedV525-0" value="«interface»&lt;div&gt;&lt;b&gt;ConstantAreaWithBorders&amp;lt;OBJ extends ObjectInArea&amp;gt;&lt;/b&gt;&lt;/div&gt;" style="html=1;whiteSpace=wrap;" parent="WIyWlLk6GJQsqaUBKTNV-1" vertex="1">
          <mxGeometry x="-360" y="290" width="340" height="70" as="geometry" />
        </mxCell>
        <mxCell id="fP4wYTiddwTJmMedV525-1" value="«interface»&lt;br&gt;&lt;b&gt;AreaWithBorders&amp;lt;OBJ extends ObjectInArea&amp;gt;&lt;/b&gt;&lt;div&gt;doesn&#39;t extend AreaContainsAll&lt;/div&gt;" style="html=1;whiteSpace=wrap;" parent="WIyWlLk6GJQsqaUBKTNV-1" vertex="1">
          <mxGeometry x="-360" y="440" width="340" height="70" as="geometry" />
        </mxCell>
        <mxCell id="fP4wYTiddwTJmMedV525-2" value="" style="endArrow=block;endSize=16;endFill=0;html=1;rounded=0;exitX=0.5;exitY=0;exitDx=0;exitDy=0;entryX=0;entryY=0.75;entryDx=0;entryDy=0;" parent="WIyWlLk6GJQsqaUBKTNV-1" source="fP4wYTiddwTJmMedV525-0" target="hQngMnyWvIp1G6kRzxm6-3" edge="1">
          <mxGeometry width="160" relative="1" as="geometry">
            <mxPoint x="-120" y="220" as="sourcePoint" />
            <mxPoint x="90" y="160" as="targetPoint" />
            <Array as="points">
              <mxPoint x="-190" y="220" />
            </Array>
          </mxGeometry>
        </mxCell>
        <mxCell id="fP4wYTiddwTJmMedV525-4" value="" style="endArrow=block;endSize=16;endFill=0;html=1;rounded=0;exitX=0.5;exitY=0;exitDx=0;exitDy=0;entryX=0.5;entryY=1;entryDx=0;entryDy=0;" parent="WIyWlLk6GJQsqaUBKTNV-1" source="fP4wYTiddwTJmMedV525-1" target="fP4wYTiddwTJmMedV525-0" edge="1">
          <mxGeometry width="160" relative="1" as="geometry">
            <mxPoint x="-50" y="470" as="sourcePoint" />
            <mxPoint x="110" y="470" as="targetPoint" />
          </mxGeometry>
        </mxCell>
        <mxCell id="fP4wYTiddwTJmMedV525-7" value="" style="endArrow=block;endSize=16;endFill=0;html=1;rounded=0;exitX=0.5;exitY=0;exitDx=0;exitDy=0;entryX=0;entryY=0.5;entryDx=0;entryDy=0;" parent="WIyWlLk6GJQsqaUBKTNV-1" source="fP4wYTiddwTJmMedV525-1" target="wfJNQ36MljdzJrXeHkmz-4" edge="1">
          <mxGeometry width="160" relative="1" as="geometry">
            <mxPoint x="-20" y="540" as="sourcePoint" />
            <mxPoint x="140" y="540" as="targetPoint" />
            <Array as="points">
              <mxPoint x="-190" y="400" />
              <mxPoint x="110" y="400" />
            </Array>
          </mxGeometry>
        </mxCell>
        <mxCell id="fP4wYTiddwTJmMedV525-8" value="" style="endArrow=block;endSize=16;endFill=0;html=1;rounded=0;exitX=0.5;exitY=0;exitDx=0;exitDy=0;entryX=0;entryY=0.5;entryDx=0;entryDy=0;" parent="WIyWlLk6GJQsqaUBKTNV-1" source="wfJNQ36MljdzJrXeHkmz-47" target="wfJNQ36MljdzJrXeHkmz-4" edge="1">
          <mxGeometry width="160" relative="1" as="geometry">
            <mxPoint x="-130" y="540" as="sourcePoint" />
            <mxPoint x="30" y="540" as="targetPoint" />
            <Array as="points">
              <mxPoint x="105" y="400" />
            </Array>
          </mxGeometry>
        </mxCell>
        <mxCell id="fP4wYTiddwTJmMedV525-9" value="&lt;div&gt;&lt;i&gt;abstract class&lt;/i&gt;&lt;/div&gt;AreaChecksPosition&amp;lt;OBJ extends ObjectsInArea&amp;gt;" style="swimlane;fontStyle=0;childLayout=stackLayout;horizontal=1;startSize=40;fillColor=default;horizontalStack=0;resizeParent=1;resizeParentMax=0;resizeLast=0;collapsible=1;marginBottom=0;whiteSpace=wrap;html=1;" parent="WIyWlLk6GJQsqaUBKTNV-1" vertex="1">
          <mxGeometry x="230" y="980" width="360" height="66" as="geometry" />
        </mxCell>
        <mxCell id="fP4wYTiddwTJmMedV525-10" value="&lt;i&gt;# checkPosition(pos: Position)&lt;/i&gt;" style="text;strokeColor=none;fillColor=default;align=left;verticalAlign=top;spacingLeft=4;spacingRight=4;overflow=hidden;rotatable=0;points=[[0,0.5],[1,0.5]];portConstraint=eastwest;whiteSpace=wrap;html=1;" parent="fP4wYTiddwTJmMedV525-9" vertex="1">
          <mxGeometry y="40" width="360" height="26" as="geometry" />
        </mxCell>
        <mxCell id="fP4wYTiddwTJmMedV525-13" value="&lt;i style=&quot;font-weight: normal;&quot;&gt;abstract class&lt;/i&gt;&lt;div&gt;AreaHandlesPosition&amp;lt;OBJ extends ObjectInArea&amp;gt;&lt;/div&gt;" style="swimlane;fontStyle=1;align=center;verticalAlign=top;childLayout=stackLayout;horizontal=1;startSize=50;horizontalStack=0;resizeParent=1;resizeParentMax=0;resizeLast=0;collapsible=1;marginBottom=0;whiteSpace=wrap;html=1;fillColor=default;" parent="WIyWlLk6GJQsqaUBKTNV-1" vertex="1">
          <mxGeometry x="230" y="1080" width="360" height="76" as="geometry" />
        </mxCell>
        <mxCell id="fP4wYTiddwTJmMedV525-18" value="&lt;i&gt;# handlesPosition(pos: Position): Position&lt;/i&gt;" style="text;strokeColor=none;fillColor=default;align=left;verticalAlign=top;spacingLeft=4;spacingRight=4;overflow=hidden;rotatable=0;points=[[0,0.5],[1,0.5]];portConstraint=eastwest;whiteSpace=wrap;html=1;" parent="fP4wYTiddwTJmMedV525-13" vertex="1">
          <mxGeometry y="50" width="360" height="26" as="geometry" />
        </mxCell>
        <mxCell id="-R_YljXbn4gXeZBOSj7D-0" value="" style="endArrow=block;endSize=16;endFill=0;html=1;rounded=0;exitX=0.5;exitY=0;exitDx=0;exitDy=0;entryX=0.5;entryY=1;entryDx=0;entryDy=0;" parent="WIyWlLk6GJQsqaUBKTNV-1" source="fP4wYTiddwTJmMedV525-9" target="wfJNQ36MljdzJrXeHkmz-26" edge="1">
          <mxGeometry width="160" relative="1" as="geometry">
            <mxPoint x="180" y="640" as="sourcePoint" />
            <mxPoint x="340" y="640" as="targetPoint" />
            <mxPoint as="offset" />
          </mxGeometry>
        </mxCell>
        <mxCell id="-R_YljXbn4gXeZBOSj7D-1" value="" style="endArrow=block;endSize=16;endFill=0;html=1;rounded=0;exitX=0.5;exitY=0;exitDx=0;exitDy=0;entryX=0.5;entryY=1;entryDx=0;entryDy=0;" parent="WIyWlLk6GJQsqaUBKTNV-1" source="fP4wYTiddwTJmMedV525-13" target="fP4wYTiddwTJmMedV525-9" edge="1">
          <mxGeometry width="160" relative="1" as="geometry">
            <mxPoint x="180" y="640" as="sourcePoint" />
            <mxPoint x="400" y="740" as="targetPoint" />
          </mxGeometry>
        </mxCell>
        <mxCell id="-R_YljXbn4gXeZBOSj7D-23" value="AreaWithBorders" style="swimlane;fontStyle=0;childLayout=stackLayout;horizontal=1;startSize=60;fillColor=default;horizontalStack=0;resizeParent=1;resizeParentMax=0;resizeLast=0;collapsible=1;marginBottom=0;whiteSpace=wrap;html=1;" parent="WIyWlLk6GJQsqaUBKTNV-1" vertex="1">
          <mxGeometry x="20" y="1080" width="170" height="60" as="geometry" />
        </mxCell>
        <mxCell id="-R_YljXbn4gXeZBOSj7D-29" value="" style="endArrow=block;endSize=16;endFill=0;html=1;rounded=0;entryX=0;entryY=0.5;entryDx=0;entryDy=0;exitX=0.75;exitY=0;exitDx=0;exitDy=0;" parent="WIyWlLk6GJQsqaUBKTNV-1" source="-R_YljXbn4gXeZBOSj7D-23" target="fP4wYTiddwTJmMedV525-9" edge="1">
          <mxGeometry width="160" relative="1" as="geometry">
            <mxPoint x="50" y="980" as="sourcePoint" />
            <mxPoint x="210" y="980" as="targetPoint" />
            <Array as="points">
              <mxPoint x="148" y="1013" />
            </Array>
          </mxGeometry>
        </mxCell>
        <mxCell id="-R_YljXbn4gXeZBOSj7D-34" value="«interface»&lt;br&gt;&lt;b&gt;ObjectInArea&lt;/b&gt;&lt;div&gt;&lt;b&gt;&lt;br&gt;&lt;/b&gt;&lt;div style=&quot;text-align: left;&quot;&gt;&lt;i&gt;getChar(): char&lt;/i&gt;&lt;/div&gt;&lt;/div&gt;" style="html=1;whiteSpace=wrap;" parent="WIyWlLk6GJQsqaUBKTNV-1" vertex="1">
          <mxGeometry x="-600" y="210" width="120" height="72" as="geometry" />
        </mxCell>
        <mxCell id="CQrB63FZySUI0mPkbTC3-1" value="«interface»&lt;br&gt;&lt;b&gt;PassableObject&lt;/b&gt;&lt;div&gt;&lt;b&gt;&lt;br&gt;&lt;/b&gt;&lt;/div&gt;&lt;div style=&quot;text-align: left;&quot;&gt;+ getDamage(): int&lt;/div&gt;&lt;div style=&quot;text-align: left;&quot;&gt;+ getHealing(): int&lt;/div&gt;" style="html=1;whiteSpace=wrap;" parent="WIyWlLk6GJQsqaUBKTNV-1" vertex="1">
          <mxGeometry x="-600" y="410" width="120" height="90" as="geometry" />
        </mxCell>
        <mxCell id="CQrB63FZySUI0mPkbTC3-2" value="" style="endArrow=block;endSize=16;endFill=0;html=1;rounded=0;exitX=0.5;exitY=0;exitDx=0;exitDy=0;entryX=0.5;entryY=1;entryDx=0;entryDy=0;" parent="WIyWlLk6GJQsqaUBKTNV-1" source="CQrB63FZySUI0mPkbTC3-1" target="CQrB63FZySUI0mPkbTC3-4" edge="1">
          <mxGeometry width="160" relative="1" as="geometry">
            <mxPoint x="-410" y="460" as="sourcePoint" />
            <mxPoint x="-250" y="460" as="targetPoint" />
          </mxGeometry>
        </mxCell>
        <mxCell id="CQrB63FZySUI0mPkbTC3-4" value="«interface»&lt;br&gt;&lt;b&gt;StaticObject&lt;/b&gt;" style="html=1;whiteSpace=wrap;" parent="WIyWlLk6GJQsqaUBKTNV-1" vertex="1">
          <mxGeometry x="-600" y="320" width="120" height="50" as="geometry" />
        </mxCell>
        <mxCell id="CQrB63FZySUI0mPkbTC3-5" value="" style="endArrow=block;endSize=16;endFill=0;html=1;rounded=0;exitX=0.5;exitY=0;exitDx=0;exitDy=0;entryX=0.5;entryY=1;entryDx=0;entryDy=0;" parent="WIyWlLk6GJQsqaUBKTNV-1" source="CQrB63FZySUI0mPkbTC3-4" target="-R_YljXbn4gXeZBOSj7D-34" edge="1">
          <mxGeometry width="160" relative="1" as="geometry">
            <mxPoint x="-410" y="460" as="sourcePoint" />
            <mxPoint x="-250" y="460" as="targetPoint" />
          </mxGeometry>
        </mxCell>
        <mxCell id="CQrB63FZySUI0mPkbTC3-6" value="«interface»&lt;div&gt;&lt;b&gt;DangerObject&lt;/b&gt;&lt;/div&gt;" style="html=1;whiteSpace=wrap;" parent="WIyWlLk6GJQsqaUBKTNV-1" vertex="1">
          <mxGeometry x="-520" y="550" width="120" height="50" as="geometry" />
        </mxCell>
        <mxCell id="CQrB63FZySUI0mPkbTC3-7" value="«interface»&lt;br&gt;&lt;b&gt;HealingObject&lt;/b&gt;" style="html=1;whiteSpace=wrap;" parent="WIyWlLk6GJQsqaUBKTNV-1" vertex="1">
          <mxGeometry x="-680" y="550" width="120" height="50" as="geometry" />
        </mxCell>
        <mxCell id="CQrB63FZySUI0mPkbTC3-9" value="" style="endArrow=block;endSize=16;endFill=0;html=1;rounded=0;exitX=0.5;exitY=0;exitDx=0;exitDy=0;entryX=0.5;entryY=1;entryDx=0;entryDy=0;" parent="WIyWlLk6GJQsqaUBKTNV-1" source="CQrB63FZySUI0mPkbTC3-7" target="CQrB63FZySUI0mPkbTC3-1" edge="1">
          <mxGeometry width="160" relative="1" as="geometry">
            <mxPoint x="-690" y="380" as="sourcePoint" />
            <mxPoint x="-530" y="380" as="targetPoint" />
            <Array as="points">
              <mxPoint x="-620" y="530" />
              <mxPoint x="-540" y="530" />
            </Array>
          </mxGeometry>
        </mxCell>
        <mxCell id="CQrB63FZySUI0mPkbTC3-12" value="" style="endArrow=block;endSize=16;endFill=0;html=1;rounded=0;entryX=0.5;entryY=1;entryDx=0;entryDy=0;exitX=0.5;exitY=0;exitDx=0;exitDy=0;" parent="WIyWlLk6GJQsqaUBKTNV-1" source="CQrB63FZySUI0mPkbTC3-6" target="CQrB63FZySUI0mPkbTC3-1" edge="1">
          <mxGeometry width="160" relative="1" as="geometry">
            <mxPoint x="-690" y="380" as="sourcePoint" />
            <mxPoint x="-530" y="380" as="targetPoint" />
            <Array as="points">
              <mxPoint x="-460" y="530" />
              <mxPoint x="-540" y="530" />
            </Array>
          </mxGeometry>
        </mxCell>
        <mxCell id="CQrB63FZySUI0mPkbTC3-13" value="&lt;b&gt;Apple&lt;/b&gt;" style="swimlane;fontStyle=0;childLayout=stackLayout;horizontal=1;startSize=52;fillColor=default;horizontalStack=0;resizeParent=1;resizeParentMax=0;resizeLast=0;collapsible=1;marginBottom=0;whiteSpace=wrap;html=1;" parent="WIyWlLk6GJQsqaUBKTNV-1" vertex="1">
          <mxGeometry x="-680" y="640" width="120" height="50" as="geometry" />
        </mxCell>
        <mxCell id="CQrB63FZySUI0mPkbTC3-17" value="&lt;b&gt;Fire&lt;/b&gt;" style="swimlane;fontStyle=0;childLayout=stackLayout;horizontal=1;startSize=52;fillColor=default;horizontalStack=0;resizeParent=1;resizeParentMax=0;resizeLast=0;collapsible=1;marginBottom=0;whiteSpace=wrap;html=1;" parent="WIyWlLk6GJQsqaUBKTNV-1" vertex="1">
          <mxGeometry x="-520" y="640" width="120" height="50" as="geometry" />
        </mxCell>
        <mxCell id="CQrB63FZySUI0mPkbTC3-21" value="" style="endArrow=block;endSize=16;endFill=0;html=1;rounded=0;exitX=0.5;exitY=1;exitDx=0;exitDy=0;entryX=0;entryY=0.5;entryDx=0;entryDy=0;" parent="WIyWlLk6GJQsqaUBKTNV-1" source="CQrB63FZySUI0mPkbTC3-17" target="CQrB63FZySUI0mPkbTC3-23" edge="1">
          <mxGeometry width="160" relative="1" as="geometry">
            <mxPoint x="-600" y="610" as="sourcePoint" />
            <mxPoint x="-420" y="630" as="targetPoint" />
            <Array as="points">
              <mxPoint x="-460" y="720" />
              <mxPoint x="-380" y="720" />
              <mxPoint x="-380" y="596" />
            </Array>
          </mxGeometry>
        </mxCell>
        <mxCell id="CQrB63FZySUI0mPkbTC3-23" value="&lt;i&gt;abstract class&lt;/i&gt;&lt;div&gt;&lt;b&gt;AbstractObject&lt;/b&gt;&lt;/div&gt;" style="swimlane;fontStyle=0;childLayout=stackLayout;horizontal=1;startSize=40;fillColor=none;horizontalStack=0;resizeParent=1;resizeParentMax=0;resizeLast=0;collapsible=1;marginBottom=0;whiteSpace=wrap;html=1;" parent="WIyWlLk6GJQsqaUBKTNV-1" vertex="1">
          <mxGeometry x="-360" y="550" width="190" height="92" as="geometry" />
        </mxCell>
        <mxCell id="CQrB63FZySUI0mPkbTC3-25" value="+ equals(obj: Object): boolean" style="text;strokeColor=none;fillColor=none;align=left;verticalAlign=top;spacingLeft=4;spacingRight=4;overflow=hidden;rotatable=0;points=[[0,0.5],[1,0.5]];portConstraint=eastwest;whiteSpace=wrap;html=1;" parent="CQrB63FZySUI0mPkbTC3-23" vertex="1">
          <mxGeometry y="40" width="190" height="26" as="geometry" />
        </mxCell>
        <mxCell id="CQrB63FZySUI0mPkbTC3-26" value="+ hashCode(): int" style="text;strokeColor=none;fillColor=none;align=left;verticalAlign=top;spacingLeft=4;spacingRight=4;overflow=hidden;rotatable=0;points=[[0,0.5],[1,0.5]];portConstraint=eastwest;whiteSpace=wrap;html=1;" parent="CQrB63FZySUI0mPkbTC3-23" vertex="1">
          <mxGeometry y="66" width="190" height="26" as="geometry" />
        </mxCell>
        <mxCell id="CQrB63FZySUI0mPkbTC3-27" value="" style="endArrow=block;dashed=1;endFill=0;endSize=12;html=1;rounded=0;exitX=0.5;exitY=0;exitDx=0;exitDy=0;" parent="WIyWlLk6GJQsqaUBKTNV-1" source="CQrB63FZySUI0mPkbTC3-23" target="-R_YljXbn4gXeZBOSj7D-34" edge="1">
          <mxGeometry width="160" relative="1" as="geometry">
            <mxPoint x="-400" y="630" as="sourcePoint" />
            <mxPoint x="-240" y="630" as="targetPoint" />
            <Array as="points">
              <mxPoint x="-265" y="530" />
              <mxPoint x="-420" y="530" />
              <mxPoint x="-420" y="246" />
            </Array>
          </mxGeometry>
        </mxCell>
        <mxCell id="CQrB63FZySUI0mPkbTC3-29" value="" style="endArrow=diamondThin;endFill=0;endSize=24;html=1;rounded=0;exitX=1;exitY=0.5;exitDx=0;exitDy=0;entryX=0;entryY=0.5;entryDx=0;entryDy=0;" parent="WIyWlLk6GJQsqaUBKTNV-1" source="hQngMnyWvIp1G6kRzxm6-3" target="hQngMnyWvIp1G6kRzxm6-1" edge="1">
          <mxGeometry width="160" relative="1" as="geometry">
            <mxPoint x="570" y="270" as="sourcePoint" />
            <mxPoint x="730" y="270" as="targetPoint" />
            <Array as="points">
              <mxPoint x="620" y="193" />
              <mxPoint x="620" y="85" />
            </Array>
          </mxGeometry>
        </mxCell>
        <mxCell id="CQrB63FZySUI0mPkbTC3-30" value="" style="endArrow=diamondThin;endFill=0;endSize=24;html=1;rounded=0;exitX=0;exitY=0.25;exitDx=0;exitDy=0;entryX=0.5;entryY=0;entryDx=0;entryDy=0;" parent="WIyWlLk6GJQsqaUBKTNV-1" source="hQngMnyWvIp1G6kRzxm6-3" target="-R_YljXbn4gXeZBOSj7D-34" edge="1">
          <mxGeometry width="160" relative="1" as="geometry">
            <mxPoint x="220" y="138" as="sourcePoint" />
            <mxPoint x="-520" y="105" as="targetPoint" />
            <Array as="points">
              <mxPoint x="-540" y="166" />
            </Array>
          </mxGeometry>
        </mxCell>
        <mxCell id="CQrB63FZySUI0mPkbTC3-31" value="&lt;span style=&quot;font-weight: 400;&quot;&gt;&lt;i&gt;abstract class&lt;/i&gt;&lt;/span&gt;&lt;div&gt;MovingObject&lt;/div&gt;" style="swimlane;fontStyle=1;align=center;verticalAlign=top;childLayout=stackLayout;horizontal=1;startSize=42;horizontalStack=0;resizeParent=1;resizeParentMax=0;resizeLast=0;collapsible=1;marginBottom=0;whiteSpace=wrap;html=1;" parent="WIyWlLk6GJQsqaUBKTNV-1" vertex="1">
          <mxGeometry x="-360" y="680" width="190" height="68" as="geometry" />
        </mxCell>
        <mxCell id="CQrB63FZySUI0mPkbTC3-34" value="+ moveToPosition(pos: Position)" style="text;strokeColor=none;fillColor=none;align=left;verticalAlign=top;spacingLeft=4;spacingRight=4;overflow=hidden;rotatable=0;points=[[0,0.5],[1,0.5]];portConstraint=eastwest;whiteSpace=wrap;html=1;" parent="CQrB63FZySUI0mPkbTC3-31" vertex="1">
          <mxGeometry y="42" width="190" height="26" as="geometry" />
        </mxCell>
        <mxCell id="XQ9cJDKKzUlpvYNYMUii-0" value="" style="endArrow=block;endSize=16;endFill=0;html=1;rounded=0;exitX=0.5;exitY=0;exitDx=0;exitDy=0;entryX=0.5;entryY=1;entryDx=0;entryDy=0;" edge="1" parent="WIyWlLk6GJQsqaUBKTNV-1" source="CQrB63FZySUI0mPkbTC3-31" target="CQrB63FZySUI0mPkbTC3-23">
          <mxGeometry width="160" relative="1" as="geometry">
            <mxPoint x="-240" y="700" as="sourcePoint" />
            <mxPoint x="-80" y="700" as="targetPoint" />
          </mxGeometry>
        </mxCell>
        <mxCell id="XQ9cJDKKzUlpvYNYMUii-3" value="" style="endArrow=block;endSize=16;endFill=0;html=1;rounded=0;exitX=0.5;exitY=0;exitDx=0;exitDy=0;entryX=0.5;entryY=1;entryDx=0;entryDy=0;" edge="1" parent="WIyWlLk6GJQsqaUBKTNV-1" source="XQ9cJDKKzUlpvYNYMUii-26" target="CQrB63FZySUI0mPkbTC3-31">
          <mxGeometry width="160" relative="1" as="geometry">
            <mxPoint x="-265.0000000000002" y="790" as="sourcePoint" />
            <mxPoint x="-80" y="860" as="targetPoint" />
          </mxGeometry>
        </mxCell>
        <mxCell id="XQ9cJDKKzUlpvYNYMUii-4" value="" style="endArrow=block;endSize=16;endFill=0;html=1;rounded=0;entryX=0.5;entryY=1;entryDx=0;entryDy=0;exitX=0.5;exitY=0;exitDx=0;exitDy=0;" edge="1" parent="WIyWlLk6GJQsqaUBKTNV-1" source="XQ9cJDKKzUlpvYNYMUii-35" target="XQ9cJDKKzUlpvYNYMUii-26">
          <mxGeometry width="160" relative="1" as="geometry">
            <mxPoint x="-470" y="1130" as="sourcePoint" />
            <mxPoint x="-400" y="1000" as="targetPoint" />
          </mxGeometry>
        </mxCell>
        <mxCell id="XQ9cJDKKzUlpvYNYMUii-5" value="" style="endArrow=block;dashed=1;endFill=0;endSize=12;html=1;rounded=0;exitX=0.5;exitY=0;exitDx=0;exitDy=0;entryX=0.5;entryY=1;entryDx=0;entryDy=0;" edge="1" parent="WIyWlLk6GJQsqaUBKTNV-1" source="CQrB63FZySUI0mPkbTC3-13" target="CQrB63FZySUI0mPkbTC3-7">
          <mxGeometry width="160" relative="1" as="geometry">
            <mxPoint x="-560" y="590" as="sourcePoint" />
            <mxPoint x="-400" y="590" as="targetPoint" />
          </mxGeometry>
        </mxCell>
        <mxCell id="XQ9cJDKKzUlpvYNYMUii-7" value="" style="endArrow=block;dashed=1;endFill=0;endSize=12;html=1;rounded=0;exitX=0.5;exitY=0;exitDx=0;exitDy=0;entryX=0.5;entryY=1;entryDx=0;entryDy=0;" edge="1" parent="WIyWlLk6GJQsqaUBKTNV-1" source="CQrB63FZySUI0mPkbTC3-17" target="CQrB63FZySUI0mPkbTC3-6">
          <mxGeometry width="160" relative="1" as="geometry">
            <mxPoint x="-560" y="590" as="sourcePoint" />
            <mxPoint x="-400" y="590" as="targetPoint" />
          </mxGeometry>
        </mxCell>
        <mxCell id="XQ9cJDKKzUlpvYNYMUii-8" value="«interface»&lt;br&gt;&lt;b&gt;Entity&lt;/b&gt;&lt;div style=&quot;text-align: left;&quot;&gt;&lt;i&gt;kill()&lt;/i&gt;&lt;/div&gt;&lt;div style=&quot;text-align: left;&quot;&gt;&lt;i&gt;getHP(): int&lt;/i&gt;&lt;/div&gt;&lt;div style=&quot;text-align: left;&quot;&gt;setHP(hp: int)&lt;/div&gt;&lt;div style=&quot;text-align: left;&quot;&gt;heal(hp: int)&lt;/div&gt;&lt;div style=&quot;text-align: left;&quot;&gt;hurt(hp: int)&lt;/div&gt;&lt;div style=&quot;text-align: left;&quot;&gt;isLiving(): boolean&lt;/div&gt;" style="html=1;whiteSpace=wrap;" vertex="1" parent="WIyWlLk6GJQsqaUBKTNV-1">
          <mxGeometry x="-827" y="550" width="110" height="140" as="geometry" />
        </mxCell>
        <mxCell id="XQ9cJDKKzUlpvYNYMUii-9" value="" style="endArrow=block;endSize=16;endFill=0;html=1;rounded=0;exitX=0.5;exitY=0;exitDx=0;exitDy=0;entryX=0;entryY=0.5;entryDx=0;entryDy=0;" edge="1" parent="WIyWlLk6GJQsqaUBKTNV-1" source="XQ9cJDKKzUlpvYNYMUii-8" target="-R_YljXbn4gXeZBOSj7D-34">
          <mxGeometry width="160" relative="1" as="geometry">
            <mxPoint x="-510" y="480" as="sourcePoint" />
            <mxPoint x="-350" y="480" as="targetPoint" />
            <Array as="points">
              <mxPoint x="-770" y="246" />
            </Array>
          </mxGeometry>
        </mxCell>
        <mxCell id="XQ9cJDKKzUlpvYNYMUii-10" value="" style="endArrow=block;dashed=1;endFill=0;endSize=12;html=1;rounded=0;entryX=0.5;entryY=1;entryDx=0;entryDy=0;exitX=0;exitY=0.5;exitDx=0;exitDy=0;" edge="1" parent="WIyWlLk6GJQsqaUBKTNV-1" source="XQ9cJDKKzUlpvYNYMUii-26" target="XQ9cJDKKzUlpvYNYMUii-8">
          <mxGeometry width="160" relative="1" as="geometry">
            <mxPoint x="-390" y="850" as="sourcePoint" />
            <mxPoint x="-350" y="730" as="targetPoint" />
            <Array as="points">
              <mxPoint x="-770" y="890" />
            </Array>
          </mxGeometry>
        </mxCell>
        <mxCell id="XQ9cJDKKzUlpvYNYMUii-12" value="" style="endArrow=block;dashed=1;endFill=0;endSize=12;html=1;rounded=0;exitX=0.25;exitY=0;exitDx=0;exitDy=0;entryX=0.75;entryY=1;entryDx=0;entryDy=0;" edge="1" parent="WIyWlLk6GJQsqaUBKTNV-1" source="-R_YljXbn4gXeZBOSj7D-23" target="fP4wYTiddwTJmMedV525-1">
          <mxGeometry width="160" relative="1" as="geometry">
            <mxPoint x="-10" y="980" as="sourcePoint" />
            <mxPoint x="-60" y="960" as="targetPoint" />
            <Array as="points">
              <mxPoint x="63" y="1060" />
              <mxPoint x="-105" y="1060" />
            </Array>
          </mxGeometry>
        </mxCell>
        <mxCell id="XQ9cJDKKzUlpvYNYMUii-14" value="GameArea" style="swimlane;fontStyle=0;childLayout=stackLayout;horizontal=1;startSize=52;fillColor=none;horizontalStack=0;resizeParent=1;resizeParentMax=0;resizeLast=0;collapsible=1;marginBottom=0;whiteSpace=wrap;html=1;" vertex="1" parent="WIyWlLk6GJQsqaUBKTNV-1">
          <mxGeometry x="30" y="770" width="140" height="52" as="geometry" />
        </mxCell>
        <mxCell id="XQ9cJDKKzUlpvYNYMUii-18" value="" style="endArrow=block;endSize=16;endFill=0;html=1;rounded=0;exitX=0.75;exitY=0;exitDx=0;exitDy=0;entryX=0;entryY=0.5;entryDx=0;entryDy=0;" edge="1" parent="WIyWlLk6GJQsqaUBKTNV-1" source="XQ9cJDKKzUlpvYNYMUii-14" target="wfJNQ36MljdzJrXeHkmz-26">
          <mxGeometry width="160" relative="1" as="geometry">
            <mxPoint x="-10" y="640" as="sourcePoint" />
            <mxPoint x="160" y="910" as="targetPoint" />
            <Array as="points">
              <mxPoint x="135" y="745" />
            </Array>
          </mxGeometry>
        </mxCell>
        <mxCell id="XQ9cJDKKzUlpvYNYMUii-19" value="" style="endArrow=block;dashed=1;endFill=0;endSize=12;html=1;rounded=0;exitX=0.25;exitY=0;exitDx=0;exitDy=0;entryX=0.5;entryY=1;entryDx=0;entryDy=0;" edge="1" parent="WIyWlLk6GJQsqaUBKTNV-1" source="XQ9cJDKKzUlpvYNYMUii-14" target="wfJNQ36MljdzJrXeHkmz-47">
          <mxGeometry width="160" relative="1" as="geometry">
            <mxPoint x="-20" y="680" as="sourcePoint" />
            <mxPoint x="140" y="680" as="targetPoint" />
            <Array as="points">
              <mxPoint x="65" y="750" />
              <mxPoint x="100" y="750" />
            </Array>
          </mxGeometry>
        </mxCell>
        <mxCell id="XQ9cJDKKzUlpvYNYMUii-33" value="" style="endArrow=block;endSize=16;endFill=0;html=1;rounded=0;exitX=0.5;exitY=1;exitDx=0;exitDy=0;entryX=0;entryY=0.5;entryDx=0;entryDy=0;" edge="1" parent="WIyWlLk6GJQsqaUBKTNV-1" source="CQrB63FZySUI0mPkbTC3-13" target="CQrB63FZySUI0mPkbTC3-23">
          <mxGeometry width="160" relative="1" as="geometry">
            <mxPoint x="-620" y="690" as="sourcePoint" />
            <mxPoint x="-360" y="596" as="targetPoint" />
            <Array as="points">
              <mxPoint x="-620" y="720" />
              <mxPoint x="-380" y="720" />
              <mxPoint x="-380" y="596" />
            </Array>
          </mxGeometry>
        </mxCell>
        <mxCell id="XQ9cJDKKzUlpvYNYMUii-26" value="&lt;i&gt;abstract class&lt;/i&gt;&lt;div&gt;&lt;b&gt;ObjectWithHP&lt;/b&gt;&lt;/div&gt;" style="swimlane;fontStyle=0;childLayout=stackLayout;horizontal=1;startSize=40;fillColor=none;horizontalStack=0;resizeParent=1;resizeParentMax=0;resizeLast=0;collapsible=1;marginBottom=0;whiteSpace=wrap;html=1;" vertex="1" parent="WIyWlLk6GJQsqaUBKTNV-1">
          <mxGeometry x="-360" y="792" width="190" height="196" as="geometry" />
        </mxCell>
        <mxCell id="XQ9cJDKKzUlpvYNYMUii-27" value="+ kill()" style="text;strokeColor=none;fillColor=none;align=left;verticalAlign=top;spacingLeft=4;spacingRight=4;overflow=hidden;rotatable=0;points=[[0,0.5],[1,0.5]];portConstraint=eastwest;whiteSpace=wrap;html=1;" vertex="1" parent="XQ9cJDKKzUlpvYNYMUii-26">
          <mxGeometry y="40" width="190" height="26" as="geometry" />
        </mxCell>
        <mxCell id="XQ9cJDKKzUlpvYNYMUii-29" value="+ getHP(): int" style="text;strokeColor=none;fillColor=none;align=left;verticalAlign=top;spacingLeft=4;spacingRight=4;overflow=hidden;rotatable=0;points=[[0,0.5],[1,0.5]];portConstraint=eastwest;whiteSpace=wrap;html=1;" vertex="1" parent="XQ9cJDKKzUlpvYNYMUii-26">
          <mxGeometry y="66" width="190" height="26" as="geometry" />
        </mxCell>
        <mxCell id="XQ9cJDKKzUlpvYNYMUii-28" value="+ setHP(hp: int)" style="text;strokeColor=none;fillColor=none;align=left;verticalAlign=top;spacingLeft=4;spacingRight=4;overflow=hidden;rotatable=0;points=[[0,0.5],[1,0.5]];portConstraint=eastwest;whiteSpace=wrap;html=1;" vertex="1" parent="XQ9cJDKKzUlpvYNYMUii-26">
          <mxGeometry y="92" width="190" height="26" as="geometry" />
        </mxCell>
        <mxCell id="XQ9cJDKKzUlpvYNYMUii-30" value="+ heal(hp: int)" style="text;strokeColor=none;fillColor=none;align=left;verticalAlign=top;spacingLeft=4;spacingRight=4;overflow=hidden;rotatable=0;points=[[0,0.5],[1,0.5]];portConstraint=eastwest;whiteSpace=wrap;html=1;" vertex="1" parent="XQ9cJDKKzUlpvYNYMUii-26">
          <mxGeometry y="118" width="190" height="26" as="geometry" />
        </mxCell>
        <mxCell id="XQ9cJDKKzUlpvYNYMUii-31" value="+ hurt(hp: int)" style="text;strokeColor=none;fillColor=none;align=left;verticalAlign=top;spacingLeft=4;spacingRight=4;overflow=hidden;rotatable=0;points=[[0,0.5],[1,0.5]];portConstraint=eastwest;whiteSpace=wrap;html=1;" vertex="1" parent="XQ9cJDKKzUlpvYNYMUii-26">
          <mxGeometry y="144" width="190" height="26" as="geometry" />
        </mxCell>
        <mxCell id="XQ9cJDKKzUlpvYNYMUii-32" value="+ isLiving(): boolean" style="text;strokeColor=none;fillColor=none;align=left;verticalAlign=top;spacingLeft=4;spacingRight=4;overflow=hidden;rotatable=0;points=[[0,0.5],[1,0.5]];portConstraint=eastwest;whiteSpace=wrap;html=1;" vertex="1" parent="XQ9cJDKKzUlpvYNYMUii-26">
          <mxGeometry y="170" width="190" height="26" as="geometry" />
        </mxCell>
        <mxCell id="XQ9cJDKKzUlpvYNYMUii-35" value="&lt;i&gt;abstract class&lt;/i&gt;&lt;div&gt;&lt;b&gt;ObjectWithAI&lt;/b&gt;&lt;/div&gt;" style="swimlane;fontStyle=0;childLayout=stackLayout;horizontal=1;startSize=40;fillColor=none;horizontalStack=0;resizeParent=1;resizeParentMax=0;resizeLast=0;collapsible=1;marginBottom=0;whiteSpace=wrap;html=1;" vertex="1" parent="WIyWlLk6GJQsqaUBKTNV-1">
          <mxGeometry x="-360" y="1030" width="190" height="66" as="geometry" />
        </mxCell>
        <mxCell id="XQ9cJDKKzUlpvYNYMUii-36" value="&lt;i&gt;+ moveToStep()&lt;/i&gt;" style="text;strokeColor=none;fillColor=none;align=left;verticalAlign=top;spacingLeft=4;spacingRight=4;overflow=hidden;rotatable=0;points=[[0,0.5],[1,0.5]];portConstraint=eastwest;whiteSpace=wrap;html=1;" vertex="1" parent="XQ9cJDKKzUlpvYNYMUii-35">
          <mxGeometry y="40" width="190" height="26" as="geometry" />
        </mxCell>
        <mxCell id="XQ9cJDKKzUlpvYNYMUii-40" value="&lt;b&gt;Stone&lt;/b&gt;" style="swimlane;fontStyle=0;childLayout=stackLayout;horizontal=1;startSize=52;fillColor=none;horizontalStack=0;resizeParent=1;resizeParentMax=0;resizeLast=0;collapsible=1;marginBottom=0;whiteSpace=wrap;html=1;" vertex="1" parent="WIyWlLk6GJQsqaUBKTNV-1">
          <mxGeometry x="-730" y="410" width="90" height="52" as="geometry" />
        </mxCell>
        <mxCell id="XQ9cJDKKzUlpvYNYMUii-44" value="" style="endArrow=block;dashed=1;endFill=0;endSize=12;html=1;rounded=0;exitX=0.75;exitY=0;exitDx=0;exitDy=0;entryX=0;entryY=0.5;entryDx=0;entryDy=0;" edge="1" parent="WIyWlLk6GJQsqaUBKTNV-1" source="XQ9cJDKKzUlpvYNYMUii-40" target="CQrB63FZySUI0mPkbTC3-4">
          <mxGeometry width="160" relative="1" as="geometry">
            <mxPoint x="-350" y="350" as="sourcePoint" />
            <mxPoint x="-190" y="350" as="targetPoint" />
            <Array as="points">
              <mxPoint x="-662" y="345" />
            </Array>
          </mxGeometry>
        </mxCell>
        <mxCell id="XQ9cJDKKzUlpvYNYMUii-45" value="" style="endArrow=block;endSize=16;endFill=0;html=1;rounded=0;entryX=0;entryY=0.5;entryDx=0;entryDy=0;exitX=0.25;exitY=0;exitDx=0;exitDy=0;" edge="1" parent="WIyWlLk6GJQsqaUBKTNV-1" source="XQ9cJDKKzUlpvYNYMUii-40" target="-R_YljXbn4gXeZBOSj7D-34">
          <mxGeometry width="160" relative="1" as="geometry">
            <mxPoint x="-700" y="359.17" as="sourcePoint" />
            <mxPoint x="-540" y="359.17" as="targetPoint" />
            <Array as="points">
              <mxPoint x="-707" y="246" />
            </Array>
          </mxGeometry>
        </mxCell>
        <mxCell id="XQ9cJDKKzUlpvYNYMUii-46" value="&lt;i&gt;abstract class&lt;/i&gt;&lt;div&gt;&lt;b&gt;Enemy&lt;/b&gt;&lt;/div&gt;" style="swimlane;fontStyle=0;childLayout=stackLayout;horizontal=1;startSize=40;fillColor=none;horizontalStack=0;resizeParent=1;resizeParentMax=0;resizeLast=0;collapsible=1;marginBottom=0;whiteSpace=wrap;html=1;" vertex="1" parent="WIyWlLk6GJQsqaUBKTNV-1">
          <mxGeometry x="-540" y="1017" width="140" height="92" as="geometry" />
        </mxCell>
        <mxCell id="XQ9cJDKKzUlpvYNYMUii-51" value="+ getHealing(): int" style="text;strokeColor=none;fillColor=none;align=left;verticalAlign=top;spacingLeft=4;spacingRight=4;overflow=hidden;rotatable=0;points=[[0,0.5],[1,0.5]];portConstraint=eastwest;whiteSpace=wrap;html=1;" vertex="1" parent="XQ9cJDKKzUlpvYNYMUii-46">
          <mxGeometry y="40" width="140" height="26" as="geometry" />
        </mxCell>
        <mxCell id="XQ9cJDKKzUlpvYNYMUii-52" value="&lt;i&gt;+ getAttack(): int&lt;/i&gt;" style="text;strokeColor=none;fillColor=none;align=left;verticalAlign=top;spacingLeft=4;spacingRight=4;overflow=hidden;rotatable=0;points=[[0,0.5],[1,0.5]];portConstraint=eastwest;whiteSpace=wrap;html=1;" vertex="1" parent="XQ9cJDKKzUlpvYNYMUii-46">
          <mxGeometry y="66" width="140" height="26" as="geometry" />
        </mxCell>
        <mxCell id="XQ9cJDKKzUlpvYNYMUii-50" value="" style="endArrow=block;endSize=16;endFill=0;html=1;rounded=0;exitX=1;exitY=0.5;exitDx=0;exitDy=0;entryX=0;entryY=0.5;entryDx=0;entryDy=0;" edge="1" parent="WIyWlLk6GJQsqaUBKTNV-1" source="XQ9cJDKKzUlpvYNYMUii-46" target="XQ9cJDKKzUlpvYNYMUii-35">
          <mxGeometry width="160" relative="1" as="geometry">
            <mxPoint x="-350" y="1020" as="sourcePoint" />
            <mxPoint x="-190" y="1020" as="targetPoint" />
          </mxGeometry>
        </mxCell>
        <mxCell id="XQ9cJDKKzUlpvYNYMUii-53" value="&lt;b&gt;EnemyMovesRandomly&lt;/b&gt;" style="swimlane;fontStyle=0;childLayout=stackLayout;horizontal=1;startSize=52;fillColor=none;horizontalStack=0;resizeParent=1;resizeParentMax=0;resizeLast=0;collapsible=1;marginBottom=0;whiteSpace=wrap;html=1;" vertex="1" parent="WIyWlLk6GJQsqaUBKTNV-1">
          <mxGeometry x="-750" y="988" width="170" height="50" as="geometry" />
        </mxCell>
        <mxCell id="XQ9cJDKKzUlpvYNYMUii-57" value="&lt;b&gt;EnemyFollowsPlayer&lt;/b&gt;" style="swimlane;fontStyle=0;childLayout=stackLayout;horizontal=1;startSize=52;fillColor=none;horizontalStack=0;resizeParent=1;resizeParentMax=0;resizeLast=0;collapsible=1;marginBottom=0;whiteSpace=wrap;html=1;" vertex="1" parent="WIyWlLk6GJQsqaUBKTNV-1">
          <mxGeometry x="-750" y="1080" width="170" height="52" as="geometry" />
        </mxCell>
        <mxCell id="XQ9cJDKKzUlpvYNYMUii-61" value="" style="endArrow=block;endSize=16;endFill=0;html=1;rounded=0;exitX=0.5;exitY=0;exitDx=0;exitDy=0;entryX=0;entryY=0.5;entryDx=0;entryDy=0;" edge="1" parent="WIyWlLk6GJQsqaUBKTNV-1" source="XQ9cJDKKzUlpvYNYMUii-57" target="XQ9cJDKKzUlpvYNYMUii-46">
          <mxGeometry width="160" relative="1" as="geometry">
            <mxPoint x="-680" y="1100" as="sourcePoint" />
            <mxPoint x="-520" y="1100" as="targetPoint" />
            <Array as="points">
              <mxPoint x="-665" y="1060" />
            </Array>
          </mxGeometry>
        </mxCell>
        <mxCell id="XQ9cJDKKzUlpvYNYMUii-62" value="" style="endArrow=block;endSize=16;endFill=0;html=1;rounded=0;exitX=0.5;exitY=1;exitDx=0;exitDy=0;entryX=0;entryY=0.5;entryDx=0;entryDy=0;" edge="1" parent="WIyWlLk6GJQsqaUBKTNV-1" source="XQ9cJDKKzUlpvYNYMUii-53" target="XQ9cJDKKzUlpvYNYMUii-46">
          <mxGeometry x="-0.0063" width="160" relative="1" as="geometry">
            <mxPoint x="-720" y="1060" as="sourcePoint" />
            <mxPoint x="-560" y="1060" as="targetPoint" />
            <Array as="points">
              <mxPoint x="-665" y="1060" />
            </Array>
            <mxPoint as="offset" />
          </mxGeometry>
        </mxCell>
      </root>
    </mxGraphModel>
  </diagram>
</mxfile>
